<svg width="800" height="400" viewBox="0 0 800 400" xmlns="http://www.w3.org/2000/svg"><mask id="satori_om-id"><rect x="0" y="0" width="800" height="400" fill="#fff"/></mask><rect x="0" y="0" width="800" height="400" fill="#fff"/><clipPath id="satori_cp-id-0"><rect x="300" y="76" width="200" height="200"/></clipPath><mask id="satori_om-id-0"><rect x="300" y="76" width="200" height="200" fill="#fff"/></mask><image x="300" y="76" width="200" height="200" href="data:image/svg+xml;utf8,%3Csvg  fill=%22%23228c22%22 xmlns=%22http://www.w3.org/2000/svg%22 width=%22NaN%22 height=%22null%22 viewBox=%220 0 1080 1080%22%3E%3Cg transform=%22matrix(2.34 0 0 2.34 576.81 520.66)%22%3E%3Cpath transform=%22translate(-269.42 -265.22)%22 d=%22m109.01 372c0.002006 8.1659 0.077049 15.833-0.021195 23.497-0.059585 4.6483 2.0144 6.5794 6.6766 6.5342 13.661-0.13263 27.324-0.097016 40.985-0.021241 4.6464 0.025788 6.4912-1.9908 6.4804-6.6848-0.11827-51.494-0.12222-102.99-0.14185-154.48-0.002563-6.6938 2.0585-9.2002 7.063-7.5619 2.1098 0.69069 4.2619 3.5904 4.9529 5.9146 6.8295 22.969 13.615 45.959 19.903 69.081 7.8595 28.903 15.219 57.942 22.841 86.91 1.6978 6.453 3.6283 7.6859 10.271 7.616 9.6518-0.10156 19.306-0.11829 28.958-0.012787 6.4888 0.070953 8.5756-1.3113 10.231-7.7256 11.934-46.243 23.812-92.501 35.789-138.73 1.6257-6.2755 3.7028-12.434 5.5657-18.648 1.0747-3.585 3.176-5.8956 7.2152-5.4531 4.046 0.44321 4.2484 3.5898 4.434 6.6803 0.20926 3.4864 0.60739 6.9721 0.61142 10.458 0.044433 38.663 0.035553 77.326 0.024628 115.99-0.003937 13.866 5.0708 25.14 17.386 32.15 20.615 11.733 46.048-1.4234 49.697-25.57 0.66937-4.4292 1.001-8.9523 1.0041-13.432 0.021698-30.995-0.042084-61.991-0.18433-92.986-0.030548-6.6553-0.63294-13.307-0.70138-19.963-0.036194-3.5155-1.606-5.417-4.6811-6.8422-5.1201-2.373-10.332-4.7054-15.046-7.7628-9.2203-5.9799-13.935-14.894-15.411-25.706-0.29712-2.1759-1.151-4.4216-2.2897-6.3083-2.9711-4.923-2.1767-10.68 2.2124-13.758 3.9914-2.7988 10.004-2.0595 13.146 1.6164 3.3907 3.967 3.0373 10.48-1.3856 13.782-2.7324 2.0402-2.7076 4.056-2.1761 6.8444 2.6515 13.909 15.46 21.203 25.37 23.419 10.697 2.3911 24.444-5.01 30.15-15.465 1.6599-3.0414 3.0347-6.3493 3.832-9.7034 0.39597-1.6656-0.30444-4.1015-1.3881-5.5147-3.3967-4.4297-3.5566-10.472 0.098541-14.048 3.5771-3.4997 10-3.524 13.617-0.051468 3.9222 3.7663 3.8766 9.5159 0.26297 13.983-1.4807 1.8306-2.7321 4.1092-3.2915 6.3802-3.8949 15.811-12.959 26.817-28.906 31.382-4.6647 1.3354-7.0469 3.7393-6.9749 8.7896 0.41089 28.815 0.85428 57.631 0.94443 86.448 0.042145 13.473 0.28012 27.061-1.2841 40.395-2.4582 20.956-21.296 35.878-42.436 35.124-19.86-0.70874-37.108-17.278-38.319-37.903-0.87805-14.948-0.55606-29.97-0.65207-44.96-0.15268-23.826-0.20593-47.654-0.31165-71.48-0.00357-0.80501-0.1192-1.6095-1.1201-2.6575-1.2857 4.3389-2.7054 8.6431-3.8365 13.022-11.445 44.31-22.837 88.633-34.26 132.95-2.3372 9.0667-5.491 11.597-14.723 11.659-10.665 0.071869-21.331 0.057495-31.997 0.006775-10.65-0.050629-13.551-2.1327-16.273-12.367-9.7086-36.505-19.232-73.059-28.98-109.55-2.993-11.205-6.482-22.277-9.7439-33.41-0.54396 0.032501-1.0879 0.065002-1.6319 0.097519v5.409c-1.5e-5 44.329 0.002671 88.658-0.001525 132.99-0.001465 15.482-1.1905 16.654-16.791 16.653-14.499-2.14e-4 -28.997 0.034424-43.496-0.015991-7.4508-0.02591-8.4775-1.0407-8.4788-8.3241-0.014939-82.325-0.021706-164.65 0.006942-246.98 0.003853-11.052 2.7672-14.551 13.536-14.73 27.317-0.45306 54.643-0.35812 81.966-0.451 3.16-0.010727 6.3596 0.53502 9.4727 0.19652 5.6577-0.61522 7.9518 2.0875 9.3365 7.2305 6.4456 23.94 13.23 47.789 19.781 71.702 3.7808 13.802 7.3315 27.667 11.028 41.492 0.50003 1.8703 1.2458 3.6748 2.3768 6.9587 1.2016-3.3103 2.052-5.1732 2.5605-7.1252 8.0958-31.081 16.117-62.182 24.245-93.255 1.1768-4.499 2.5889-8.9671 4.2979-13.289 2.5441-6.4342 7.2298-10.837 14.089-12.272 4.1102-0.86026 6.6655-2.937 8.734-6.5763 6.2264-10.955 18.514-15.347 28.536-10.274 7.449 3.7703 11.462 9.8751 11.298 18.473-0.15982 8.3562-4.132 14.401-11.532 17.789-7.6081 3.4832-15.316 3.4228-21.995-2.3586-2.6061-2.2562-4.679-5.1663-6.8145-7.9185-2.5921-3.3408-5.5767-3.8731-9.1824-1.8343-4.8729 2.7553-7.0751 7.2605-8.4236 12.432-7.3474 28.18-14.702 56.358-22.144 84.512-2.4235 9.1679-4.9153 18.33-7.8463 27.342-0.68012 2.0912-3.2232 4.8658-5.0209 4.9503-1.8883 0.088837-5.0555-2.3028-5.6887-4.2521-4.1067-12.642-7.8398-25.412-11.385-38.227-7.4995-27.108-14.8-54.272-22.202-81.407-1.9926-7.3043-2.4093-7.5951-9.916-7.5961-26.497-0.00328-52.995-0.002533-79.492-7.78e-4 -11.894 7.94e-4 -12.383 0.40147-12.392 12.317-0.038521 46.329-0.016312 92.658-0.016572 138.99-1.37e-4 24.995-2.2e-5 49.991-2.2e-5 75.486z%22%3E%3C/path%3E%3C/g%3E%3C/svg%3E" preserveAspectRatio="none" clip-path="url(#satori_cp-id-0)" mask="url(#satori_om-id-0)"/><mask id="satori_om-id-0-0"><rect x="300" y="76" width="0" height="200" fill="#fff"/></mask><mask id="satori_om-id-0-0-0"><rect x="300" y="76" width="0" height="200" fill="#fff"/></mask><mask id="satori_om-id-1"><rect x="167" y="276" width="466" height="48" fill="#fff"/></mask><path fill="#228c22" d="M182.1 313.4L176.1 313.4L167.8 284.3L174.5 284.3L179.3 304.6L179.5 304.6L184.8 284.3L190.6 284.3L195.9 304.6L196.1 304.6L201.0 284.3L207.7 284.3L199.4 313.4L193.4 313.4L187.8 294.4L187.6 294.4L182.1 313.4ZM218.4 313.9L218.4 313.9Q215.1 313.9 212.6 312.5Q210.2 311.1 208.9 308.6Q207.6 306.1 207.6 302.6L207.6 302.6Q207.6 299.3 208.9 296.7Q210.2 294.2 212.6 292.8Q215.0 291.3 218.2 291.3L218.2 291.3Q220.4 291.3 222.2 292.0Q224.1 292.7 225.5 294.1Q226.9 295.5 227.7 297.6Q228.4 299.6 228.4 302.4L228.4 302.4L228.4 304.1L210.0 304.1L210.0 300.3L222.8 300.3Q222.8 299.0 222.2 298.0Q221.6 297.0 220.6 296.4Q219.6 295.9 218.3 295.9L218.3 295.9Q216.9 295.9 215.9 296.5Q214.8 297.1 214.2 298.2Q213.6 299.2 213.6 300.5L213.6 300.5L213.6 304.1Q213.6 305.7 214.2 306.9Q214.8 308.1 215.9 308.7Q217.0 309.3 218.5 309.3L218.5 309.3Q219.5 309.3 220.4 309.1Q221.2 308.8 221.8 308.2Q222.4 307.6 222.7 306.8L222.7 306.8L228.3 307.2Q227.9 309.2 226.6 310.7Q225.3 312.2 223.2 313.0Q221.1 313.9 218.4 313.9ZM232.4 284.3L238.4 284.3L238.4 313.4L232.4 313.4L232.4 284.3ZM253.1 313.9L253.1 313.9Q249.8 313.9 247.4 312.4Q245.0 311.0 243.7 308.5Q242.4 305.9 242.4 302.6L242.4 302.6Q242.4 299.3 243.7 296.7Q245.0 294.2 247.4 292.8Q249.8 291.3 253.1 291.3L253.1 291.3Q256.0 291.3 258.1 292.4Q260.3 293.4 261.5 295.3Q262.8 297.2 262.9 299.7L262.9 299.7L257.2 299.7Q256.9 298.1 255.9 297.1Q254.9 296.1 253.2 296.1L253.2 296.1Q251.8 296.1 250.8 296.8Q249.7 297.6 249.1 299.0Q248.5 300.5 248.5 302.5L248.5 302.5Q248.5 304.6 249.1 306.1Q249.7 307.5 250.8 308.3Q251.8 309.1 253.2 309.1L253.2 309.1Q254.2 309.1 255.1 308.7Q255.9 308.2 256.5 307.4Q257 306.6 257.2 305.4L257.2 305.4L262.9 305.4Q262.7 307.9 261.5 309.8Q260.3 311.7 258.2 312.8Q256.0 313.9 253.1 313.9ZM276.6 313.9L276.6 313.9Q273.3 313.9 270.9 312.5Q268.5 311.0 267.2 308.5Q265.9 306.0 265.9 302.6L265.9 302.6Q265.9 299.2 267.2 296.7Q268.5 294.2 270.9 292.8Q273.3 291.3 276.6 291.3L276.6 291.3Q279.9 291.3 282.3 292.8Q284.8 294.2 286.1 296.7Q287.4 299.2 287.4 302.6L287.4 302.6Q287.4 306.0 286.1 308.5Q284.8 311.0 282.3 312.5Q279.9 313.9 276.6 313.9ZM276.7 309.2L276.7 309.2Q278.2 309.2 279.2 308.3Q280.2 307.5 280.7 306.0Q281.2 304.5 281.2 302.6L281.2 302.6Q281.2 300.7 280.7 299.2Q280.2 297.7 279.2 296.8Q278.2 296.0 276.7 296.0L276.7 296.0Q275.1 296.0 274.1 296.8Q273.1 297.7 272.6 299.2Q272.0 300.7 272.0 302.6L272.0 302.6Q272.0 304.5 272.6 306.0Q273.1 307.5 274.1 308.3Q275.1 309.2 276.7 309.2ZM297.4 313.4L291.3 313.4L291.3 291.6L297.1 291.6L297.1 295.5L297.3 295.5Q298.0 293.6 299.6 292.4Q301.2 291.3 303.4 291.3L303.4 291.3Q305.7 291.3 307.2 292.5Q308.8 293.6 309.3 295.5L309.3 295.5L309.6 295.5Q310.2 293.6 312.0 292.5Q313.7 291.3 316.1 291.3L316.1 291.3Q319.2 291.3 321.1 293.3Q323.0 295.2 323.0 298.8L323.0 298.8L323.0 313.4L317.0 313.4L317.0 300.0Q317.0 298.1 316.0 297.2Q315.1 296.3 313.6 296.3L313.6 296.3Q312.0 296.3 311.0 297.4Q310.1 298.4 310.1 300.1L310.1 300.1L310.1 313.4L304.2 313.4L304.2 299.8Q304.2 298.2 303.3 297.3Q302.4 296.3 300.9 296.3L300.9 296.3Q299.9 296.3 299.1 296.8Q298.3 297.3 297.8 298.2Q297.4 299.1 297.4 300.3L297.4 300.3L297.4 313.4ZM337.7 313.9L337.7 313.9Q334.4 313.9 332.0 312.5Q329.5 311.1 328.2 308.6Q326.9 306.1 326.9 302.6L326.9 302.6Q326.9 299.3 328.2 296.7Q329.5 294.2 331.9 292.8Q334.3 291.3 337.5 291.3L337.5 291.3Q339.7 291.3 341.5 292.0Q343.4 292.7 344.8 294.1Q346.2 295.5 347.0 297.6Q347.8 299.6 347.8 302.4L347.8 302.4L347.8 304.1L329.3 304.1L329.3 300.3L342.1 300.3Q342.1 299.0 341.5 298.0Q340.9 297.0 339.9 296.4Q338.9 295.9 337.6 295.9L337.6 295.9Q336.2 295.9 335.2 296.5Q334.1 297.1 333.5 298.2Q332.9 299.2 332.9 300.5L332.9 300.5L332.9 304.1Q332.9 305.7 333.5 306.9Q334.1 308.1 335.2 308.7Q336.3 309.3 337.8 309.3L337.8 309.3Q338.8 309.3 339.7 309.1Q340.5 308.8 341.1 308.2Q341.7 307.6 342.0 306.8L342.0 306.8L347.6 307.2Q347.2 309.2 345.9 310.7Q344.6 312.2 342.5 313.0Q340.4 313.9 337.7 313.9Z M361.8 291.6L374.9 291.6L374.9 296.2L361.8 296.2L361.8 291.6ZM364.8 307.5L364.8 286.4L370.8 286.4L370.8 306.7Q370.8 307.6 371.1 308.0Q371.3 308.5 371.8 308.7Q372.3 308.9 372.9 308.9L372.9 308.9Q373.3 308.9 373.7 308.8Q374.2 308.7 374.4 308.7L374.4 308.7L375.3 313.2Q374.9 313.3 374.1 313.5Q373.2 313.7 372.1 313.7L372.1 313.7Q369.9 313.8 368.2 313.2Q366.6 312.5 365.7 311.1Q364.8 309.7 364.8 307.5L364.8 307.5ZM388.5 313.9L388.5 313.9Q385.2 313.9 382.8 312.5Q380.4 311.0 379.1 308.5Q377.8 306.0 377.8 302.6L377.8 302.6Q377.8 299.2 379.1 296.7Q380.4 294.2 382.8 292.8Q385.2 291.3 388.5 291.3L388.5 291.3Q391.8 291.3 394.2 292.8Q396.6 294.2 397.9 296.7Q399.2 299.2 399.2 302.6L399.2 302.6Q399.2 306.0 397.9 308.5Q396.6 311.0 394.2 312.5Q391.8 313.9 388.5 313.9ZM388.5 309.2L388.5 309.2Q390.0 309.2 391.0 308.3Q392.1 307.5 392.6 306.0Q393.1 304.5 393.1 302.6L393.1 302.6Q393.1 300.7 392.6 299.2Q392.1 297.7 391.0 296.8Q390.0 296.0 388.5 296.0L388.5 296.0Q387.0 296.0 386.0 296.8Q385.0 297.7 384.4 299.2Q383.9 300.7 383.9 302.6L383.9 302.6Q383.9 304.5 384.4 306.0Q385.0 307.5 386.0 308.3Q387.0 309.2 388.5 309.2Z M412.8 313.4L412.8 284.3L420.4 284.3L428.4 303.9L428.7 303.9L436.8 284.3L444.3 284.3L444.3 313.4L438.4 313.4L438.4 294.5L438.1 294.5L430.6 313.3L426.5 313.3L419.0 294.4L418.8 294.4L418.8 313.4L412.8 313.4ZM459.2 313.9L459.2 313.9Q455.9 313.9 453.4 312.5Q451.0 311.1 449.7 308.6Q448.4 306.1 448.4 302.6L448.4 302.6Q448.4 299.3 449.7 296.7Q451.0 294.2 453.4 292.8Q455.8 291.3 459.0 291.3L459.0 291.3Q461.1 291.3 463.0 292.0Q464.9 292.7 466.3 294.1Q467.7 295.5 468.5 297.6Q469.2 299.6 469.2 302.4L469.2 302.4L469.2 304.1L450.8 304.1L450.8 300.3L463.5 300.3Q463.5 299.0 463.0 298.0Q462.4 297.0 461.4 296.4Q460.4 295.9 459.1 295.9L459.1 295.9Q457.7 295.9 456.7 296.5Q455.6 297.1 455.0 298.2Q454.4 299.2 454.4 300.5L454.4 300.5L454.4 304.1Q454.4 305.7 455.0 306.9Q455.6 308.1 456.7 308.7Q457.8 309.3 459.3 309.3L459.3 309.3Q460.3 309.3 461.2 309.1Q462.0 308.8 462.6 308.2Q463.2 307.6 463.5 306.8L463.5 306.8L469.1 307.2Q468.7 309.2 467.4 310.7Q466.1 312.2 464.0 313.0Q461.9 313.9 459.2 313.9ZM481.2 313.8L481.2 313.8Q478.7 313.8 476.7 312.5Q474.7 311.2 473.6 308.7Q472.4 306.2 472.4 302.6L472.4 302.6Q472.4 298.8 473.6 296.3Q474.8 293.8 476.8 292.6Q478.8 291.3 481.2 291.3L481.2 291.3Q483.1 291.3 484.3 292.0Q485.5 292.6 486.3 293.5Q487.0 294.4 487.4 295.3L487.4 295.3L487.6 295.3L487.6 284.3L493.6 284.3L493.6 313.4L487.7 313.4L487.7 309.9L487.4 309.9Q487.0 310.9 486.2 311.7Q485.5 312.6 484.2 313.2Q483.0 313.8 481.2 313.8ZM483.2 309.0L483.2 309.0Q484.6 309.0 485.6 308.2Q486.6 307.4 487.2 305.9Q487.7 304.5 487.7 302.5L487.7 302.5Q487.7 300.6 487.2 299.2Q486.7 297.7 485.6 296.9Q484.6 296.2 483.2 296.2L483.2 296.2Q481.7 296.2 480.6 297.0Q479.6 297.8 479.1 299.2Q478.6 300.6 478.6 302.5L478.6 302.5Q478.6 304.4 479.1 305.9Q479.6 307.3 480.6 308.2Q481.7 309.0 483.2 309.0ZM504.9 313.4L498.7 313.4L498.7 284.3L510.2 284.3Q513.5 284.3 515.8 285.6Q518.2 286.9 519.4 289.1Q520.6 291.3 520.6 294.2L520.6 294.2Q520.6 297.1 519.4 299.3Q518.1 301.5 515.8 302.8Q513.4 304.0 510.0 304.0L510.0 304.0L502.7 304.0L502.7 299.1L509.0 299.1Q510.8 299.1 512.0 298.5Q513.1 297.8 513.7 296.7Q514.3 295.6 514.3 294.2L514.3 294.2Q514.3 292.8 513.7 291.7Q513.1 290.6 512.0 290.0Q510.8 289.4 509.0 289.4L509.0 289.4L504.9 289.4L504.9 313.4ZM534.0 313.9L534.0 313.9Q530.7 313.9 528.3 312.5Q525.9 311.0 524.6 308.5Q523.3 306.0 523.3 302.6L523.3 302.6Q523.3 299.2 524.6 296.7Q525.9 294.2 528.3 292.8Q530.7 291.3 534.0 291.3L534.0 291.3Q537.3 291.3 539.7 292.8Q542.1 294.2 543.4 296.7Q544.7 299.2 544.7 302.6L544.7 302.6Q544.7 306.0 543.4 308.5Q542.1 311.0 539.7 312.5Q537.3 313.9 534.0 313.9ZM534.0 309.2L534.0 309.2Q535.5 309.2 536.5 308.3Q537.6 307.5 538.1 306.0Q538.6 304.5 538.6 302.6L538.6 302.6Q538.6 300.7 538.1 299.2Q537.6 297.7 536.5 296.8Q535.5 296.0 534.0 296.0L534.0 296.0Q532.5 296.0 531.5 296.8Q530.5 297.7 529.9 299.2Q529.4 300.7 529.4 302.6L529.4 302.6Q529.4 304.5 529.9 306.0Q530.5 307.5 531.5 308.3Q532.5 309.2 534.0 309.2ZM558.5 313.9L558.5 313.9Q555.2 313.9 552.8 312.4Q550.4 311.0 549.1 308.5Q547.8 305.9 547.8 302.6L547.8 302.6Q547.8 299.3 549.1 296.7Q550.4 294.2 552.8 292.8Q555.2 291.3 558.5 291.3L558.5 291.3Q561.4 291.3 563.5 292.4Q565.7 293.4 566.9 295.3Q568.2 297.2 568.3 299.7L568.3 299.7L562.6 299.7Q562.3 298.1 561.3 297.1Q560.3 296.1 558.6 296.1L558.6 296.1Q557.2 296.1 556.2 296.8Q555.1 297.6 554.5 299.0Q554.0 300.5 554.0 302.5L554.0 302.5Q554.0 304.6 554.5 306.1Q555.1 307.5 556.2 308.3Q557.2 309.1 558.6 309.1L558.6 309.1Q559.7 309.1 560.5 308.7Q561.3 308.2 561.9 307.4Q562.4 306.6 562.6 305.4L562.6 305.4L568.3 305.4Q568.2 307.9 566.9 309.8Q565.7 311.7 563.6 312.8Q561.5 313.9 558.5 313.9ZM581.7 302.6L577.7 307.2L577.7 299.9L578.6 299.9L585.6 291.6L592.5 291.6L583.1 302.6L581.7 302.6ZM578.2 313.4L572.2 313.4L572.2 284.3L578.2 284.3L578.2 313.4ZM592.9 313.4L585.8 313.4L579.4 303.9L583.4 299.7L592.9 313.4ZM604.5 313.9L604.5 313.9Q601.1 313.9 598.7 312.5Q596.3 311.1 595.0 308.6Q593.7 306.1 593.7 302.6L593.7 302.6Q593.7 299.3 595.0 296.7Q596.3 294.2 598.7 292.8Q601.0 291.3 604.2 291.3L604.2 291.3Q606.4 291.3 608.3 292.0Q610.1 292.7 611.5 294.1Q612.9 295.5 613.7 297.6Q614.5 299.6 614.5 302.4L614.5 302.4L614.5 304.1L596.1 304.1L596.1 300.3L608.8 300.3Q608.8 299.0 608.2 298.0Q607.7 297.0 606.7 296.4Q605.7 295.9 604.3 295.9L604.3 295.9Q603.0 295.9 601.9 296.5Q600.8 297.1 600.3 298.2Q599.7 299.2 599.6 300.5L599.6 300.5L599.6 304.1Q599.6 305.7 600.2 306.9Q600.8 308.1 602.0 308.7Q603.1 309.3 604.6 309.3L604.6 309.3Q605.6 309.3 606.4 309.1Q607.3 308.8 607.9 308.2Q608.5 307.6 608.8 306.8L608.8 306.8L614.4 307.2Q613.9 309.2 612.6 310.7Q611.3 312.2 609.3 313.0Q607.2 313.9 604.5 313.9ZM616.9 291.6L630.1 291.6L630.1 296.2L616.9 296.2L616.9 291.6ZM619.9 307.5L619.9 286.4L625.9 286.4L625.9 306.7Q625.9 307.6 626.2 308.0Q626.5 308.5 626.9 308.7Q627.4 308.9 628.0 308.9L628.0 308.9Q628.4 308.9 628.8 308.8Q629.3 308.7 629.5 308.7L629.5 308.7L630.5 313.2Q630.0 313.3 629.2 313.5Q628.3 313.7 627.2 313.7L627.2 313.7Q625.0 313.8 623.3 313.2Q621.7 312.5 620.8 311.1Q619.9 309.7 619.9 307.5L619.9 307.5Z "/></svg>